<svg width="25" height="24" viewBox="0 0 25 24" fill="none" xmlns="http://www.w3.org/2000/svg">
<path d="M15.8927 15.9537L13.1174 4.85253C13.0484 4.57647 12.8004 4.38281 12.5158 4.38281C12.2169 4.38281 11.9605 4.59608 11.9061 4.89001L9.71891 16.7007C9.60506 17.3155 10.077 17.8828 10.7022 17.8828H14.4648C14.7992 17.8828 15.1114 17.7157 15.2969 17.4375L15.7546 16.7509C15.9109 16.5165 15.961 16.227 15.8927 15.9537Z" fill="#FECD34"/>
<mask id="mask0_152_10262" style="mask-type:luminance" maskUnits="userSpaceOnUse" x="0" y="0" width="25" height="24">
<path d="M24.5 0H0.5V24H24.5V0Z" fill="white"/>
</mask>
<g mask="url(#mask0_152_10262)">
<path d="M12.5004 4.12486C8.96603 4.06861 6.11603 6.87173 6.03165 10.4061C5.99415 12.2249 6.7254 13.5467 7.71915 14.9061C8.59103 16.0967 9.14415 16.2186 9.5004 17.9999" fill="#FECD34"/>
<path d="M12.5004 4.12486C8.96603 4.06861 6.11603 6.87173 6.03165 10.4061C5.99415 12.2249 6.7254 13.5467 7.71915 14.9061C8.59103 16.0967 9.14415 16.2186 9.5004 17.9999" stroke="#422A47" stroke-width="1.5" stroke-miterlimit="10" stroke-linecap="round" stroke-linejoin="round"/>
</g>
<mask id="mask1_152_10262" style="mask-type:luminance" maskUnits="userSpaceOnUse" x="0" y="0" width="25" height="24">
<path d="M24.5 0H0.5V24H24.5V0Z" fill="white"/>
</mask>
<g mask="url(#mask1_152_10262)">
<path d="M12.5 4.12486C16.0344 4.06861 18.8844 6.87173 18.9688 10.4061C19.0062 12.2249 18.275 13.5467 17.2812 14.9061C16.4094 16.0967 15.8563 16.2186 15.5 17.9999" fill="#FECD34"/>
<path d="M12.5 4.12486C16.0344 4.06861 18.8844 6.87173 18.9688 10.4061C19.0063 12.2249 18.275 13.5467 17.2812 14.9061C16.4094 16.0967 15.8562 16.2186 15.5 17.9999" stroke="#422A47" stroke-width="1.5" stroke-miterlimit="10" stroke-linecap="round" stroke-linejoin="round"/>
</g>
<mask id="mask2_152_10262" style="mask-type:luminance" maskUnits="userSpaceOnUse" x="0" y="0" width="25" height="24">
<path d="M24.5 0H0.5V24H24.5V0Z" fill="white"/>
</mask>
<g mask="url(#mask2_152_10262)">
<path d="M15.5 18H15.4812H9.59375" stroke="#422A47" stroke-width="1.5" stroke-miterlimit="10" stroke-linecap="round" stroke-linejoin="round"/>
</g>
<mask id="mask3_152_10262" style="mask-type:luminance" maskUnits="userSpaceOnUse" x="0" y="-1" width="25" height="25">
<path d="M24.5 -0.5H0.5V23.5H24.5V-0.5Z" fill="white"/>
</mask>
<g mask="url(#mask3_152_10262)">
<path d="M15.5 19V20.5H9.5" stroke="#422A47" stroke-width="1.5" stroke-miterlimit="10" stroke-linecap="round" stroke-linejoin="round"/>
</g>
<mask id="mask4_152_10262" style="mask-type:luminance" maskUnits="userSpaceOnUse" x="0" y="0" width="25" height="24">
<path d="M24.5 0H0.5V24H24.5V0Z" fill="white"/>
</mask>
<g mask="url(#mask4_152_10262)">
<path d="M15.125 21L14 23.25H12.5" stroke="#422A47" stroke-width="1.5" stroke-miterlimit="10" stroke-linecap="round" stroke-linejoin="round"/>
</g>
<mask id="mask5_152_10262" style="mask-type:luminance" maskUnits="userSpaceOnUse" x="0" y="0" width="25" height="24">
<path d="M24.5 0H0.5V24H24.5V0Z" fill="white"/>
</mask>
<g mask="url(#mask5_152_10262)">
<path d="M12.5 0.375V1.96875" stroke="#422A47" stroke-width="1.5" stroke-miterlimit="10" stroke-linecap="round" stroke-linejoin="round"/>
</g>
<mask id="mask6_152_10262" style="mask-type:luminance" maskUnits="userSpaceOnUse" x="0" y="0" width="25" height="24">
<path d="M24.5 0H0.5V24H24.5V0Z" fill="white"/>
</mask>
<g mask="url(#mask6_152_10262)">
<path d="M8.98438 1.92188L9.275 2.61562" stroke="#422A47" stroke-width="1.5" stroke-miterlimit="10" stroke-linecap="round" stroke-linejoin="round"/>
</g>
<mask id="mask7_152_10262" style="mask-type:luminance" maskUnits="userSpaceOnUse" x="0" y="0" width="25" height="24">
<path d="M24.5 0H0.5V24H24.5V0Z" fill="white"/>
</mask>
<g mask="url(#mask7_152_10262)">
<path d="M4.01562 6.89062L4.70937 7.18125" stroke="#422A47" stroke-width="1.5" stroke-miterlimit="10" stroke-linecap="round" stroke-linejoin="round"/>
</g>
<mask id="mask8_152_10262" style="mask-type:luminance" maskUnits="userSpaceOnUse" x="0" y="0" width="25" height="24">
<path d="M24.5 0H0.5V24H24.5V0Z" fill="white"/>
</mask>
<g mask="url(#mask8_152_10262)">
<path d="M4.01562 13.9215L4.70937 13.6309" stroke="#422A47" stroke-width="1.5" stroke-miterlimit="10" stroke-linecap="round" stroke-linejoin="round"/>
</g>
<mask id="mask9_152_10262" style="mask-type:luminance" maskUnits="userSpaceOnUse" x="0" y="0" width="25" height="24">
<path d="M24.5 0H0.5V24H24.5V0Z" fill="white"/>
</mask>
<g mask="url(#mask9_152_10262)">
<path d="M20.9848 13.9215L20.291 13.6309" stroke="#422A47" stroke-width="1.5" stroke-miterlimit="10" stroke-linecap="round" stroke-linejoin="round"/>
</g>
<mask id="mask10_152_10262" style="mask-type:luminance" maskUnits="userSpaceOnUse" x="0" y="0" width="25" height="24">
<path d="M24.5 0H0.5V24H24.5V0Z" fill="white"/>
</mask>
<g mask="url(#mask10_152_10262)">
<path d="M20.9848 6.89062L20.291 7.18125" stroke="#422A47" stroke-width="1.5" stroke-miterlimit="10" stroke-linecap="round" stroke-linejoin="round"/>
</g>
<mask id="mask11_152_10262" style="mask-type:luminance" maskUnits="userSpaceOnUse" x="0" y="0" width="25" height="24">
<path d="M24.5 0H0.5V24H24.5V0Z" fill="white"/>
</mask>
<g mask="url(#mask11_152_10262)">
<path d="M16.0152 1.92188L15.7246 2.61562" stroke="#422A47" stroke-width="1.5" stroke-miterlimit="10" stroke-linecap="round" stroke-linejoin="round"/>
</g>
<mask id="mask12_152_10262" style="mask-type:luminance" maskUnits="userSpaceOnUse" x="0" y="0" width="25" height="24">
<path d="M24.5 0H0.5V24H24.5V0Z" fill="white"/>
</mask>
<g mask="url(#mask12_152_10262)">
<path d="M5.40332 3.30957L6.53769 4.44394" stroke="#422A47" stroke-width="1.5" stroke-miterlimit="10" stroke-linecap="round" stroke-linejoin="round"/>
</g>
<mask id="mask13_152_10262" style="mask-type:luminance" maskUnits="userSpaceOnUse" x="0" y="0" width="25" height="24">
<path d="M24.5 0H0.5V24H24.5V0Z" fill="white"/>
</mask>
<g mask="url(#mask13_152_10262)">
<path d="M2.46875 10.4062H4.0625" stroke="#422A47" stroke-width="1.5" stroke-miterlimit="10" stroke-linecap="round" stroke-linejoin="round"/>
</g>
<mask id="mask14_152_10262" style="mask-type:luminance" maskUnits="userSpaceOnUse" x="0" y="0" width="25" height="24">
<path d="M24.5 0H0.5V24H24.5V0Z" fill="white"/>
</mask>
<g mask="url(#mask14_152_10262)">
<path d="M5.40332 17.5035L6.53769 16.3691" stroke="#422A47" stroke-width="1.5" stroke-miterlimit="10" stroke-linecap="round" stroke-linejoin="round"/>
</g>
<mask id="mask15_152_10262" style="mask-type:luminance" maskUnits="userSpaceOnUse" x="0" y="0" width="25" height="24">
<path d="M24.5 0H0.5V24H24.5V0Z" fill="white"/>
</mask>
<g mask="url(#mask15_152_10262)">
<path d="M19.5973 17.5035L18.4629 16.3691" stroke="#422A47" stroke-width="1.5" stroke-miterlimit="10" stroke-linecap="round" stroke-linejoin="round"/>
</g>
<mask id="mask16_152_10262" style="mask-type:luminance" maskUnits="userSpaceOnUse" x="0" y="0" width="25" height="24">
<path d="M24.5 0H0.5V24H24.5V0Z" fill="white"/>
</mask>
<g mask="url(#mask16_152_10262)">
<path d="M22.5312 10.4062H20.9375" stroke="#422A47" stroke-width="1.5" stroke-miterlimit="10" stroke-linecap="round" stroke-linejoin="round"/>
</g>
<mask id="mask17_152_10262" style="mask-type:luminance" maskUnits="userSpaceOnUse" x="0" y="0" width="25" height="24">
<path d="M24.5 0H0.5V24H24.5V0Z" fill="white"/>
</mask>
<g mask="url(#mask17_152_10262)">
<path d="M19.5973 3.30957L18.4629 4.44394" stroke="#422A47" stroke-width="1.5" stroke-miterlimit="10" stroke-linecap="round" stroke-linejoin="round"/>
</g>
<mask id="mask18_152_10262" style="mask-type:luminance" maskUnits="userSpaceOnUse" x="0" y="0" width="25" height="24">
<path d="M24.5 0H0.5V24H24.5V0Z" fill="white"/>
</mask>
<g mask="url(#mask18_152_10262)">
<path d="M14.8994 6.69336C15.9494 7.35898 16.7088 8.44649 16.9338 9.72149" stroke="#422A47" stroke-width="1.5" stroke-miterlimit="10" stroke-linecap="round" stroke-linejoin="round"/>
</g>
<mask id="mask19_152_10262" style="mask-type:luminance" maskUnits="userSpaceOnUse" x="0" y="0" width="25" height="24">
<path d="M24.5 0H0.5V24H24.5V0Z" fill="white"/>
</mask>
<g mask="url(#mask19_152_10262)">
<path d="M12.5 23.25H11L10.625 22.5" stroke="#422A47" stroke-width="1.5" stroke-miterlimit="10" stroke-linecap="round" stroke-linejoin="round"/>
</g>
</svg>
