<svg width="29" height="24" viewBox="0 0 29 24" fill="none" xmlns="http://www.w3.org/2000/svg">
<path d="M15.6458 11.5894C16.6503 9.35524 14.3735 3.04228 9.48203 1.77908C6.27381 0.951154 3.81741 5.13037 4.7884 8.11944C5.75939 11.1055 14.6383 13.8236 15.6458 11.5894Z" fill="#422A47"/>
<path d="M19.8671 15.7227C17.3985 6.92895 4.92785 11.2786 3.22938 17.062C2.33448 19.8836 5.23223 22.1117 7.61862 22.7418C11.3626 23.8193 22.3357 24.5164 19.8671 15.7227Z" fill="#35393D"/>
<path d="M24.2475 6.72886C23.5079 6.58579 22.8352 6.51274 22.2203 6.49144C22.4334 5.87658 22.8717 5.31955 23.4165 5.00299C23.9036 4.71687 24.5336 4.70165 25.0602 4.52206C25.1181 4.58902 25.182 4.6499 25.2611 4.69252C25.3646 4.77166 25.4833 4.8234 25.6142 4.84166C25.7877 4.8721 25.9551 4.85688 26.1225 4.79905C26.2138 4.76557 26.3112 4.71078 26.3934 4.65599C26.5365 4.56163 26.6887 4.38204 26.7587 4.22681C26.78 4.18115 26.7952 4.13549 26.8135 4.08983V4.09896C26.8135 4.09896 26.8135 4.0807 26.8196 4.07157C26.8257 4.05026 26.8348 4.032 26.8409 4.01069C26.8987 3.85546 26.9474 3.68804 26.9109 3.52063C26.8926 3.338 26.8317 3.17059 26.7283 3.02144C26.6522 2.90577 26.5578 2.81446 26.436 2.75054C26.3265 2.66531 26.1986 2.61052 26.0556 2.58921C25.8699 2.55573 25.6903 2.57095 25.5138 2.63487C25.4285 2.67444 25.3463 2.71705 25.2642 2.76271C25.112 2.86925 24.9963 3.00318 24.9141 3.17059C24.8928 3.2132 24.8776 3.25886 24.8624 3.30452C23.9857 3.23451 22.9417 3.77631 22.3421 4.28159C21.6359 4.87819 21.2432 5.65133 21.2311 6.50057C20.9175 6.52187 20.6223 6.56144 20.3422 6.61319C20.3179 5.9892 20.3301 5.3439 20.5431 4.77166C20.7471 4.22376 21.1489 3.77632 21.435 3.26799C21.5111 3.28321 21.5872 3.2893 21.6663 3.28321L21.7759 3.27712C21.8246 3.27712 21.8733 3.27712 21.922 3.26799H21.9433C21.9616 3.26799 21.9768 3.25886 21.992 3.25582C22.0164 3.25277 22.0377 3.24668 22.062 3.24364C22.0955 3.23451 22.129 3.22842 22.1594 3.21625C22.1716 3.2132 22.1868 3.21016 22.199 3.20407C22.7104 3.0397 22.9143 2.41267 22.6799 1.96218C22.5673 1.74606 22.3999 1.603 22.1686 1.52995C22.0559 1.48125 21.9403 1.46603 21.8155 1.48125C21.8003 1.48125 21.785 1.49038 21.7698 1.49038C21.505 1.49038 21.2463 1.59083 21.0667 1.79172C20.9358 1.85868 20.8232 1.96218 20.7653 2.09915C20.7166 2.21177 20.6953 2.33353 20.7014 2.45833C20.7075 2.58008 20.7745 2.73836 20.8658 2.8449C20.8719 2.85707 20.881 2.86925 20.8871 2.88142C19.5721 3.64543 19.0182 5.39565 19.4595 6.84452C16.8083 7.76681 16.1722 10.2445 16.507 12.0221L19.4413 17.5315C19.4413 17.5315 21.8642 18.2407 24.8715 17.3337C27.8788 16.4235 30.9349 8.01032 24.2475 6.72277V6.72886Z" fill="#35393D"/>
<path d="M11.8006 23.3426C10.7018 23.3061 9.65471 23.1782 8.78417 23.0108C9.09768 22.4172 9.38076 21.8146 9.49643 21.1327C9.6821 20.0552 9.58774 18.932 9.26814 17.888C8.69894 16.0191 7.42661 14.5367 5.86815 13.4318C6.44648 12.963 7.09178 12.5399 7.77665 12.1716C9.81299 13.3131 11.341 15.2916 11.965 17.6201C12.385 19.1755 12.5433 21.6106 11.8006 23.3456V23.3426Z" fill="#FECD34"/>
<path d="M7.46345 22.6913C6.89425 22.5269 6.30374 22.2743 5.74671 21.9456C5.8289 21.5346 5.98413 21.1389 6.07849 20.6945C6.24591 19.9153 6.23982 19.0904 6.0024 18.3203C5.66148 17.2032 4.86704 16.2475 3.98432 15.4621C4.26435 15.033 4.59918 14.622 4.97966 14.2324C6.44071 14.9082 7.48475 16.217 7.95655 17.8485C8.34921 19.2122 8.45879 21.4585 7.46345 22.6883V22.6913Z" fill="#FECD34"/>
<path d="M16.3576 22.8413C15.3835 23.1426 14.309 23.2918 13.2376 23.3374C13.4202 22.3117 13.7703 21.3224 13.7064 20.2297C13.6272 18.9147 13.2559 17.6393 12.7475 16.4309C11.874 14.3824 10.4829 12.9061 8.77531 11.6856C9.70065 11.2899 10.6777 11.0007 11.6578 10.8455C13.268 12.0021 14.5404 13.6915 15.3561 15.4813C16.0836 17.0793 17.0242 20.5249 16.3576 22.8383V22.8413Z" fill="#FECD34"/>
<path d="M17.3865 22.4528C19.5659 21.4331 20.9052 19.412 19.8672 15.7137C19.8611 15.6863 19.852 15.6589 19.8429 15.6346C19.8429 15.6346 19.8429 15.6285 19.8398 15.6254C19.5628 14.6697 19.1671 13.8722 18.6771 13.2178C17.3774 11.4797 15.4323 10.7431 13.3503 10.7188C13.3442 10.7188 13.3412 10.7188 13.3351 10.7188C14.6257 12.125 15.8159 13.6469 16.5616 15.4063C17.5843 17.8231 17.6604 19.966 17.3865 22.4528Z" fill="#FECD34"/>
<path d="M17.0211 13.1492C18.8474 11.5177 19.3253 4.82121 15.3683 1.68299C12.7719 -0.374657 8.83312 2.45004 8.50742 5.57304C8.18173 8.69604 15.1978 14.7807 17.0211 13.1492Z" fill="white"/>
<path d="M3.94787 18.0364C3.18387 17.8507 0.590498 18.2586 0.687902 18.6604C0.663551 19.0439 3.24779 20.1762 4.13659 19.6405C4.7545 19.2692 4.7058 18.219 3.94787 18.0364Z" fill="#35393D"/>
<path d="M26.655 10.5317C26.585 10.3977 26.515 10.2638 26.445 10.1299C26.2654 9.8742 26.0371 9.67635 25.757 9.53937C25.5379 9.42371 25.3066 9.37196 25.0661 9.38109C24.8317 9.35065 24.6034 9.38109 24.3782 9.46936C24.156 9.54242 23.9642 9.66113 23.8059 9.83158C23.6203 9.9716 23.4802 10.1512 23.3859 10.3703C23.3707 10.4038 23.3585 10.4404 23.3433 10.4738C23.2428 10.6778 23.1972 10.8939 23.2063 11.1191C23.1789 11.2774 23.1911 11.4296 23.2459 11.5788C23.2763 11.807 23.3615 12.014 23.5046 12.2027C23.605 12.3154 23.7055 12.4249 23.8059 12.5376C23.9338 12.6198 24.0616 12.705 24.1895 12.7872C24.4086 12.9028 24.6369 12.9546 24.8774 12.9454C25.1117 12.9759 25.337 12.9454 25.5622 12.8572C25.6322 12.8237 25.7023 12.7872 25.7723 12.7476C25.8514 12.7232 25.9184 12.6867 25.9792 12.638C26.0919 12.5376 26.2045 12.4371 26.3141 12.3336C26.3171 12.3306 26.3202 12.3275 26.3232 12.3215C26.3689 12.2575 26.4115 12.1936 26.451 12.1266C26.5028 12.0627 26.5454 11.9958 26.5819 11.9258C26.6306 11.7736 26.6793 11.6244 26.728 11.4722C26.728 11.4661 26.7311 11.46 26.7311 11.454C26.7859 11.1374 26.7615 10.83 26.6519 10.5286L26.655 10.5317Z" fill="white"/>
<path d="M25.6083 10.0754C24.333 9.84405 23.9707 11.8256 25.2492 12.0569C26.5245 12.2883 26.8868 10.3067 25.6083 10.0754Z" fill="#35393D"/>
</svg>
