<svg width="32" height="32" viewBox="0 0 32 32" fill="none" xmlns="http://www.w3.org/2000/svg">
<path d="M28.354 23.744C28.5005 23.8763 28.6186 24.037 28.7012 24.2163C28.7837 24.3957 28.829 24.5899 28.8342 24.7872C28.8394 24.9846 28.8044 25.1809 28.7315 25.3643C28.6585 25.5478 28.549 25.7144 28.4097 25.8543C28.2703 25.9941 28.104 26.1042 27.9209 26.1778C27.7377 26.2514 27.5415 26.2871 27.3441 26.2826C27.1468 26.278 26.9524 26.2335 26.7728 26.1516C26.5932 26.0697 26.4321 25.9521 26.2992 25.8061L14.0144 13.5285L16.0765 11.4665L28.354 23.744Z" fill="#F1F2F5"/>
<path d="M16.4987 10.4392C16.4995 10.6298 16.4626 10.8188 16.3901 10.9951C16.3175 11.1714 16.2108 11.3317 16.0761 11.4666L14.014 13.5286C13.7511 13.7877 13.3999 13.9377 13.0309 13.9485C12.6619 13.9594 12.3025 13.8302 12.0249 13.5869C11.9975 13.5716 11.9729 13.5519 11.952 13.5286C11.8165 13.3933 11.709 13.2325 11.6357 13.0556C11.5623 12.8787 11.5246 12.6891 11.5246 12.4976C11.5246 12.3061 11.5623 12.1164 11.6357 11.9395C11.709 11.7626 11.8165 11.6019 11.952 11.4666L14.014 9.40451C14.1494 9.26902 14.3101 9.16153 14.487 9.0882C14.6639 9.01486 14.8536 8.97711 15.0451 8.97711C15.2366 8.97711 15.4262 9.01486 15.6031 9.0882C15.78 9.16153 15.9407 9.26902 16.0761 9.40451C16.268 9.59277 16.3998 9.83363 16.455 10.0967C16.4843 10.2085 16.499 10.3236 16.4987 10.4392Z" fill="#FECD34"/>
<path d="M15.464 7.34247C15.4658 7.72975 15.3138 8.1019 15.0413 8.37714L10.9245 12.4939C10.7258 12.6912 10.4744 12.8271 10.2004 12.8853C9.92649 12.9434 9.64158 12.9214 9.37982 12.8218C9.18464 12.7534 9.00769 12.6412 8.86249 12.4939C8.727 12.3586 8.61951 12.1979 8.54617 12.021C8.47284 11.8441 8.43509 11.6544 8.43509 11.4629C8.43509 11.2714 8.47284 11.0818 8.54617 10.9049C8.61951 10.728 8.727 10.5672 8.86249 10.4319L12.9793 6.3151C13.1146 6.1796 13.2754 6.07212 13.4523 5.99878C13.6292 5.92544 13.8188 5.8877 14.0103 5.8877C14.2018 5.8877 14.3915 5.92544 14.5684 5.99878C14.7453 6.07212 14.906 6.1796 15.0413 6.3151C15.2933 6.56484 15.4417 6.90057 15.4567 7.25504C15.4627 7.28377 15.4651 7.31314 15.464 7.34247Z" fill="#FECD34"/>
<path d="M13.2173 28.9131C13.2173 29.4666 12.9974 29.9974 12.606 30.3888C12.2146 30.7802 11.6838 31 11.1303 31C10.5768 31 10.046 30.7802 9.65462 30.3888C9.26324 29.9974 9.04337 29.4666 9.04337 28.9131C9.04337 26.8261 11.1303 24.0435 11.1303 24.0435C11.1303 24.0435 13.2173 26.8261 13.2173 28.9131Z" fill="#FECD34" stroke="#68556C"/>
<path d="M14.4443 4.25302C14.4438 4.44413 14.4055 4.63326 14.3317 4.80956C14.258 4.98586 14.1501 5.14586 14.0144 5.2804L12.9797 6.31507L8.86292 10.4319L7.82825 11.4665C7.55481 11.74 7.18394 11.8936 6.79723 11.8936C6.41052 11.8936 6.03965 11.74 5.7662 11.4665C5.49276 11.1931 5.33914 10.8222 5.33914 10.4355C5.33914 10.0488 5.49276 9.67794 5.7662 9.40449L6.75715 8.41354C6.77345 8.40363 6.78818 8.39135 6.80087 8.37711L10.925 4.25302C10.9392 4.24033 10.9515 4.22559 10.9614 4.2093L11.9523 3.21835C12.0877 3.08286 12.2484 2.97537 12.4253 2.90204C12.6022 2.8287 12.7919 2.79095 12.9834 2.79095C13.1749 2.79095 13.3645 2.8287 13.5414 2.90204C13.7183 2.97537 13.879 3.08286 14.0144 3.21835C14.2287 3.43104 14.3692 3.70686 14.4151 4.00528C14.4356 4.08624 14.4454 4.16953 14.4443 4.25302Z" fill="#FECD34"/>
<path d="M12.0249 13.5869V19.5471C12.0239 19.9081 11.8894 20.256 11.6472 20.5237C11.4051 20.7914 11.0724 20.9601 10.7133 20.9971H10.6988C10.4975 21.0142 10.2949 20.9895 10.1036 20.9245C9.91238 20.8595 9.73664 20.7557 9.58746 20.6195C9.43829 20.4833 9.31889 20.3177 9.23678 20.1332C9.15466 19.9486 9.11161 19.7491 9.11032 19.5471V23.1903C9.10935 23.5513 8.97483 23.8992 8.73267 24.1669C8.49052 24.4346 8.15786 24.6032 7.79878 24.6403H7.7842C7.58294 24.6574 7.38032 24.6327 7.18907 24.5677C6.99783 24.5027 6.82209 24.3988 6.67291 24.2627C6.52373 24.1265 6.40434 23.9609 6.32222 23.7764C6.24011 23.5918 6.19706 23.3923 6.19577 23.1903V17.3612C6.1948 17.7222 6.06028 18.0701 5.81812 18.3378C5.57597 18.6055 5.2433 18.7741 4.88422 18.8112H4.86965C4.66839 18.8283 4.46577 18.8036 4.27452 18.7386C4.08327 18.6736 3.90754 18.5697 3.75836 18.4336C3.60918 18.2974 3.48978 18.1318 3.40767 17.9473C3.32556 17.7627 3.28251 17.5632 3.28122 17.3612V4.25302C3.28156 4.44057 3.3187 4.62624 3.39051 4.7995C3.42599 4.88251 3.46739 4.96287 3.51438 5.03995C3.52167 5.04723 3.52896 5.06181 3.53624 5.06909C3.58077 5.13295 3.62945 5.1938 3.68197 5.25125L3.72569 5.29497C3.76907 5.33992 3.81804 5.3791 3.87142 5.41155C3.90421 5.4429 3.94095 5.46985 3.98071 5.4917C4.05956 5.53804 4.14249 5.57706 4.22845 5.60829C4.47303 5.70379 4.73925 5.72983 4.9977 5.68354C5.25615 5.63725 5.49678 5.52043 5.69301 5.34598C5.73673 5.30226 5.78045 5.26583 5.82417 5.22211L7.82792 3.21835L7.83521 3.22564L4.7385 6.31506C4.48019 6.58703 4.33669 6.94813 4.33787 7.32322C4.33905 7.6983 4.48481 8.05849 4.74483 8.32883C5.00484 8.59917 5.35908 8.75884 5.73384 8.77462C6.1086 8.7904 6.47501 8.66107 6.75682 8.41354L5.76588 9.40449C5.61347 9.55488 5.4963 9.7372 5.4228 9.9383C5.3493 10.1394 5.3213 10.3543 5.34081 10.5675C5.36032 10.7808 5.42686 10.987 5.53563 11.1714C5.64441 11.3559 5.79272 11.5139 5.96989 11.6341C6.04201 11.681 6.11751 11.7224 6.19577 11.758C6.23337 11.7757 6.27236 11.7904 6.31235 11.8017C6.3378 11.8146 6.36471 11.8244 6.3925 11.8309C6.4701 11.8582 6.55093 11.8754 6.63295 11.8819H6.67667C6.7783 11.8977 6.88194 11.8952 6.9827 11.8746H7.04099C7.10657 11.86 7.17943 11.8381 7.24501 11.8163C7.31788 11.7934 7.38859 11.7642 7.45632 11.7288C7.52498 11.6954 7.59078 11.6565 7.65305 11.6123L7.66033 11.605C7.71969 11.5632 7.77573 11.5169 7.82792 11.4665L8.86259 10.4319C8.7271 10.5672 8.61961 10.7279 8.54627 10.9048C8.47293 11.0818 8.43519 11.2714 8.43519 11.4629C8.43519 11.6544 8.47293 11.844 8.54627 12.0209C8.61961 12.1979 8.7271 12.3586 8.86259 12.4939C8.99788 12.6302 9.1592 12.7378 9.33696 12.8104C9.51471 12.883 9.70526 12.9191 9.89725 12.9165C9.98556 12.9176 10.0737 12.9079 10.1596 12.8874C10.244 12.8733 10.3269 12.8513 10.4073 12.8218C10.4621 12.8006 10.5156 12.7762 10.5676 12.7489C10.6258 12.7217 10.6819 12.6901 10.7352 12.6542C10.8016 12.6048 10.8649 12.5512 10.9246 12.4939L11.952 11.4665C11.8165 11.6019 11.709 11.7626 11.6357 11.9395C11.5624 12.1164 11.5246 12.3061 11.5246 12.4976C11.5246 12.6891 11.5624 12.8787 11.6357 13.0556C11.709 13.2325 11.8165 13.3932 11.952 13.5286C11.9729 13.5519 11.9976 13.5716 12.0249 13.5869Z" fill="#FECD34"/>
<path d="M11.3542 3.22558C11.3548 3.59195 11.2139 3.94439 10.9607 4.20925C10.9508 4.22554 10.9385 4.24027 10.9243 4.25296L6.80021 8.37706C6.78751 8.39129 6.77278 8.40357 6.75649 8.41349C6.47896 8.66614 6.11533 8.80312 5.74008 8.79634C5.36484 8.78957 5.00639 8.63956 4.73816 8.37706C4.60267 8.24171 4.49518 8.08099 4.42184 7.90408C4.34851 7.72717 4.31076 7.53754 4.31076 7.34603C4.31076 7.15452 4.34851 6.96489 4.42184 6.78798C4.49518 6.61107 4.60267 6.45035 4.73816 6.31501L7.83487 3.22558L8.86225 2.19092C8.99759 2.05543 9.15831 1.94794 9.33522 1.8746C9.51214 1.80127 9.70177 1.76352 9.89327 1.76352C10.0848 1.76352 10.2744 1.80127 10.4513 1.8746C10.6282 1.94794 10.789 2.05543 10.9243 2.19092C11.1008 2.3625 11.2268 2.57925 11.2886 2.81755C11.3322 2.94916 11.3544 3.08694 11.3542 3.22558Z" fill="#FECD34"/>
<path d="M8.25047 2.19091V2.19819C8.25126 2.38776 8.2143 2.5756 8.14174 2.75073C8.06918 2.92587 7.96248 3.08481 7.82786 3.21829L5.76581 5.28033C5.57958 5.46856 5.34448 5.60104 5.08701 5.66284C4.82953 5.72463 4.55991 5.71328 4.30854 5.63008C4.29397 5.63008 4.28668 5.62279 4.27211 5.61551C4.05933 5.55399 3.86607 5.43853 3.71106 5.28033C3.57532 5.1458 3.46747 4.98579 3.3937 4.80949C3.31993 4.63319 3.28169 4.44406 3.28116 4.25295V4.24567C3.28169 4.05455 3.31993 3.86543 3.3937 3.68913C3.46747 3.51283 3.57532 3.35282 3.71106 3.21829L5.76581 1.16353C5.90046 1.02681 6.06096 0.91823 6.23796 0.844119C6.41497 0.770008 6.60494 0.731842 6.79684 0.731842C6.98873 0.731842 7.17871 0.770008 7.35571 0.844119C7.53271 0.91823 7.69321 1.02681 7.82786 1.16353C7.93837 1.26939 8.02743 1.39556 8.09017 1.53513C8.1969 1.73715 8.25197 1.96244 8.25047 2.19091Z" fill="#FECD34"/>
<path d="M5.46713 16.6326H6.19577V17.2796C6.20304 17.6538 6.07124 18.0175 5.82587 18.3001C5.5805 18.5828 5.239 18.7644 4.86746 18.8098C4.66654 18.8263 4.46437 18.8012 4.27358 18.7361C4.08279 18.671 3.90748 18.5672 3.75861 18.4312C3.60974 18.2953 3.49051 18.1301 3.40837 17.946C3.32623 17.7619 3.28294 17.5628 3.28122 17.3612V4.25302C3.28197 4.46552 3.32919 4.67528 3.41956 4.86761C3.50994 5.05993 3.64128 5.23017 3.80438 5.36638C4.0989 5.5969 4.46861 5.70966 4.84165 5.68272C5.21468 5.65579 5.56437 5.49109 5.82271 5.22065L7.82792 3.21835L7.83521 3.22564L4.7385 6.31506C4.603 6.45041 4.49552 6.61113 4.42218 6.78804C4.34884 6.96495 4.3111 7.15458 4.3111 7.34609C4.3111 7.5376 4.34884 7.72723 4.42218 7.90414C4.49552 8.08105 4.603 8.24177 4.7385 8.37711V15.9039C4.7385 16.0972 4.81526 16.2825 4.95191 16.4192C5.08855 16.5558 5.27389 16.6326 5.46713 16.6326Z" fill="#FECD34"/>
<path d="M9.47467 16.6325C9.67588 16.6325 9.83899 16.1432 9.83899 15.5396C9.83899 14.936 9.67588 14.4466 9.47467 14.4466C9.27346 14.4466 9.11035 14.936 9.11035 15.5396C9.11035 16.1432 9.27346 16.6325 9.47467 16.6325Z" fill="#FFF9E7"/>
<path d="M6.56012 13.718C6.76133 13.718 6.92444 13.5549 6.92444 13.3537C6.92444 13.1525 6.76133 12.9894 6.56012 12.9894C6.35891 12.9894 6.1958 13.1525 6.1958 13.3537C6.1958 13.5549 6.35891 13.718 6.56012 13.718Z" fill="#FFF9E7"/>
<path d="M8.0173 15.1753C8.21851 15.1753 8.38162 15.0122 8.38162 14.8109C8.38162 14.6097 8.21851 14.4466 8.0173 14.4466C7.8161 14.4466 7.65298 14.6097 7.65298 14.8109C7.65298 15.0122 7.8161 15.1753 8.0173 15.1753Z" fill="#FFF9E7"/>
<path d="M28.8684 23.229L18.6092 12.9698C18.4718 12.8371 18.2877 12.7636 18.0967 12.7653C17.9056 12.7669 17.7229 12.8436 17.5878 12.9787C17.4527 13.1138 17.3761 13.2965 17.3744 13.4876C17.3727 13.6786 17.4462 13.8627 17.5789 14.0001L27.8411 24.2622C27.9743 24.4003 28.0487 24.5847 28.0487 24.7766C28.0487 24.9685 27.9743 25.1529 27.8411 25.2911C27.7047 25.4259 27.5206 25.5015 27.3288 25.5015C27.137 25.5015 26.953 25.4259 26.8166 25.2911L15.0491 13.5308L16.596 11.981C16.604 11.973 16.6062 11.9621 16.6142 11.9533C16.8621 11.6998 17.0442 11.3896 17.1448 11.0496C17.2453 10.7096 17.2612 10.3502 17.1911 10.0026C17.121 9.6551 16.967 9.32996 16.7425 9.05555C16.518 8.78113 16.2298 8.56576 15.9031 8.42819C16.0588 8.16191 16.1559 7.86541 16.1877 7.55855C16.2195 7.2517 16.1854 6.94159 16.0875 6.64901C15.9897 6.35644 15.8304 6.08817 15.6204 5.86219C15.4104 5.63621 15.1545 5.45775 14.8698 5.33876C15.109 4.92342 15.2051 4.44097 15.1432 3.96569C15.0813 3.4904 14.8649 3.04863 14.5274 2.70838C14.1819 2.38084 13.7411 2.17175 13.2689 2.11136C12.7966 2.05097 12.3174 2.14242 11.9006 2.37248C11.7821 2.08684 11.6038 1.82989 11.3777 1.61887C11.1516 1.40785 10.883 1.24764 10.5899 1.14902C10.2968 1.05039 9.98593 1.01563 9.67827 1.04706C9.37061 1.07849 9.07323 1.17539 8.80612 1.33125C8.6671 1.00177 8.44909 0.711594 8.17134 0.486344C7.89359 0.261094 7.56464 0.107703 7.21356 0.0397188C6.86247 -0.0282658 6.50005 -0.00875226 6.15829 0.0965359C5.81654 0.201824 5.50596 0.389647 5.25401 0.643418L3.19196 2.70401C2.78476 3.11415 2.555 3.66786 2.55222 4.2458V17.3613C2.55222 17.941 2.78252 18.497 3.19245 18.907C3.60239 19.3169 4.15839 19.5472 4.73813 19.5472C4.98692 19.5448 5.23343 19.4995 5.46677 19.4131V23.1904C5.46964 23.7692 5.70086 24.3236 6.11018 24.7329C6.5195 25.1422 7.07383 25.3734 7.65268 25.3763C8.23242 25.3763 8.78842 25.146 9.19836 24.7361C9.60829 24.3261 9.8386 23.7701 9.8386 23.1904C9.8386 22.9971 9.76183 22.8118 9.62518 22.6752C9.48854 22.5385 9.30321 22.4618 9.10996 22.4618C8.91671 22.4618 8.73138 22.5385 8.59473 22.6752C8.45809 22.8118 8.38132 22.9971 8.38132 23.1904C8.38132 23.3836 8.30455 23.569 8.16791 23.7056C8.03126 23.8423 7.84593 23.919 7.65268 23.919C7.55555 23.9193 7.45939 23.8997 7.37016 23.8614C7.28092 23.823 7.2005 23.7668 7.13389 23.6961C7.06661 23.6303 7.01333 23.5516 6.97726 23.4647C6.9412 23.3778 6.9231 23.2845 6.92404 23.1904V15.1754C6.92404 14.9821 6.84728 14.7968 6.71063 14.6601C6.57399 14.5235 6.38865 14.4467 6.19541 14.4467C6.00216 14.4467 5.81683 14.5235 5.68018 14.6601C5.54353 14.7968 5.46677 14.9821 5.46677 15.1754V17.3613C5.46677 17.5545 5.39 17.7399 5.25336 17.8765C5.11671 18.0132 4.93138 18.0899 4.73813 18.0899C4.54488 18.0899 4.35955 18.0132 4.2229 17.8765C4.08626 17.7399 4.00949 17.5545 4.00949 17.3613V8.62783C4.07422 8.72008 4.14558 8.80751 4.22298 8.88941C4.42087 9.08581 4.65462 9.24239 4.91155 9.35064C4.669 9.76505 4.5706 10.2482 4.63175 10.7244C4.69289 11.2007 4.91013 11.6433 5.2495 11.983C5.58886 12.3226 6.03123 12.5403 6.50743 12.6019C6.98363 12.6635 7.46683 12.5656 7.88147 12.3235C8.00108 12.6079 8.18004 12.8634 8.40636 13.0731C8.63268 13.2827 8.90116 13.4416 9.19383 13.5391C9.48651 13.6367 9.79664 13.6706 10.1035 13.6386C10.4103 13.6067 10.7068 13.5095 10.9731 13.3538C11.0871 13.6255 11.2553 13.8711 11.4675 14.0756C11.6796 14.2801 11.9313 14.4391 12.2071 14.543C12.4828 14.6469 12.7769 14.6934 13.0712 14.6797C13.3656 14.6661 13.654 14.5925 13.919 14.4635L25.7834 26.3235C26.1989 26.705 26.7457 26.9112 27.3097 26.8988C27.8736 26.8865 28.4109 26.6566 28.8093 26.2573C29.2077 25.858 29.4363 25.3201 29.4473 24.7561C29.4584 24.1922 29.2509 23.6458 28.8684 23.2312V23.229ZM9.89106 2.49707C10.0342 2.49795 10.1739 2.54095 10.2927 2.62071C10.4115 2.70047 10.5042 2.81345 10.5592 2.94556C10.6143 3.07768 10.6292 3.22307 10.6021 3.36359C10.575 3.50412 10.5071 3.63356 10.4069 3.73576L6.2843 7.85839C6.14542 7.99069 5.96096 8.06449 5.76915 8.06449C5.57734 8.06449 5.39288 7.99069 5.25401 7.85839C5.11741 7.72175 5.04067 7.53645 5.04067 7.34325C5.04067 7.15004 5.11741 6.96474 5.25401 6.8281L9.37518 2.70619C9.51269 2.57096 9.6982 2.49576 9.89106 2.49707ZM4.22298 3.73576L6.2843 1.67517C6.35152 1.60558 6.43191 1.55007 6.52081 1.51188C6.60971 1.47369 6.70532 1.45359 6.80207 1.45275C6.89882 1.45191 6.99476 1.47035 7.08431 1.50698C7.17386 1.54362 7.25521 1.59772 7.32362 1.66614C7.39204 1.73455 7.44614 1.81591 7.48278 1.90545C7.51942 1.995 7.53785 2.09095 7.53701 2.18769C7.53617 2.28444 7.51607 2.38005 7.47788 2.46895C7.4397 2.55785 7.38419 2.63825 7.31459 2.70546L5.25401 4.76751C5.18626 4.83521 5.10584 4.8889 5.01735 4.92552C4.92885 4.96214 4.83401 4.98097 4.73824 4.98093C4.64246 4.9809 4.54763 4.962 4.45916 4.92532C4.37069 4.88864 4.29032 4.83489 4.22262 4.76714C4.15492 4.6994 4.10123 4.61898 4.06461 4.53049C4.02799 4.44199 4.00916 4.34715 4.00919 4.25138C4.00923 4.1556 4.02813 4.06077 4.06481 3.9723C4.10149 3.88383 4.15524 3.80346 4.22298 3.73576ZM6.2843 10.9493C6.1477 10.8126 6.07096 10.6273 6.07096 10.4341C6.07096 10.2409 6.1477 10.0556 6.2843 9.91898L12.4668 3.73576C12.6035 3.59913 12.7889 3.52242 12.9822 3.52248C13.1755 3.52255 13.3608 3.5994 13.4975 3.73612C13.6341 3.87284 13.7108 4.05824 13.7107 4.25153C13.7107 4.44481 13.6338 4.63016 13.4971 4.76678L7.31459 10.9493C7.17795 11.0859 6.99265 11.1626 6.79945 11.1626C6.60624 11.1626 6.42094 11.0859 6.2843 10.9493ZM9.37664 11.9781C9.24309 11.8402 9.16842 11.6557 9.16842 11.4637C9.16842 11.2717 9.24309 11.0872 9.37664 10.9493L13.4985 6.82737C13.6352 6.69065 13.8205 6.6138 14.0138 6.61373C14.2071 6.61366 14.3925 6.69038 14.5292 6.827C14.6659 6.96363 14.7428 7.14897 14.7428 7.34226C14.7429 7.53554 14.6662 7.72094 14.5296 7.85766L10.4077 11.9796C10.2676 12.1099 10.0833 12.1822 9.89201 12.1821C9.70069 12.182 9.51654 12.1093 9.37664 11.9788V11.9781ZM12.469 13.0077C12.3333 12.8712 12.2571 12.6865 12.2571 12.494C12.2571 12.3015 12.3333 12.1168 12.469 11.9803L14.5303 9.91825C14.6596 9.79539 14.8285 9.7228 15.0066 9.71358C15.1848 9.70436 15.3603 9.75912 15.5016 9.86798C15.5801 9.93275 15.6444 10.0131 15.6902 10.1041C15.736 10.195 15.7625 10.2944 15.7678 10.3961C15.7732 10.4978 15.7573 10.5995 15.7212 10.6947C15.6852 10.7899 15.6297 10.8766 15.5584 10.9493L13.4971 13.0099C13.3584 13.1418 13.1742 13.2153 12.9827 13.215C12.7913 13.2148 12.6073 13.14 12.469 13.0077Z" fill="#68556C"/>
</svg>
