<svg width="516" height="366" viewBox="0 0 516 366" fill="none" xmlns="http://www.w3.org/2000/svg">
<path d="M262.028 118.925C258.92 117.117 255.08 117.117 251.972 118.925L203.948 146.858C200.87 148.648 198.976 151.941 198.976 155.502L198.976 211.498C198.976 215.059 200.87 218.352 203.948 220.142L251.972 248.075C255.08 249.883 258.92 249.883 262.028 248.075L310.052 220.142C313.13 218.352 315.024 215.059 315.024 211.498L315.024 155.502C315.024 151.941 313.13 148.648 310.052 146.858L262.028 118.925Z" fill="#FFCF11"/>
<g clip-path="url(#clip0)">
<path d="M257.546 213.712C254.354 213.766 251.223 213.351 248.159 212.447C245.954 211.797 243.82 210.969 241.811 209.858C236.239 206.779 231.793 202.55 228.704 196.948C227.489 194.743 226.567 192.423 225.958 189.989C225.525 188.258 225.175 186.505 225.168 184.703C225.166 184.31 225.113 183.917 225.06 183.527C225.007 183.138 225.144 182.985 225.55 182.968C226.139 182.945 226.685 183.136 227.252 183.218C228.032 183.329 228.473 182.976 228.378 182.29C228.334 181.971 228.119 181.791 227.864 181.638C226.131 180.588 223.91 180.804 222.425 182.178C221.168 183.342 220.855 184.811 221.059 186.443C221.073 186.56 221.137 186.673 221.177 186.785C221.234 186.94 221.323 187.058 221.505 187.044C221.704 187.028 221.771 186.893 221.82 186.713C221.983 186.117 222.085 185.502 222.389 184.949C222.686 184.408 223.039 183.928 223.566 183.591C223.929 183.36 224.021 183.394 224.025 183.806C224.038 185.615 224.256 187.401 224.586 189.175C225.288 192.952 226.638 196.484 228.593 199.791C229.896 201.993 231.419 204.034 233.194 205.869C235.333 208.078 237.729 209.977 240.4 211.524C243.62 213.39 247.045 214.693 250.697 215.399C253.798 216 256.923 216.149 260.07 215.863C264.665 215.445 268.983 214.112 273.012 211.884C276.277 210.079 279.162 207.778 281.641 204.986C285.102 201.089 287.545 196.642 288.903 191.604C289.584 189.073 289.958 186.503 290.027 183.886C290.03 183.755 289.988 183.595 290.145 183.524C290.295 183.456 290.404 183.569 290.51 183.651C291.299 184.261 291.772 185.067 291.984 186.034C292.038 186.285 292.109 186.532 292.17 186.784C292.204 186.929 292.288 187.037 292.437 187.06C292.614 187.088 292.722 186.982 292.789 186.833C292.838 186.724 292.902 186.613 292.92 186.496C293.35 183.797 291.945 181.683 289.455 181.086C288.256 180.799 287.173 181.077 286.133 181.642C285.679 181.887 285.493 182.324 285.632 182.741C285.752 183.107 286.191 183.305 286.696 183.225C287.263 183.134 287.82 182.988 288.403 182.974C288.837 182.963 288.994 183.121 288.975 183.558C288.888 185.606 288.647 187.634 288.176 189.63C287.285 193.391 285.701 196.844 283.465 199.993C280.922 203.573 277.757 206.5 274.036 208.832C271.268 210.565 268.3 211.846 265.142 212.676C262.655 213.322 260.126 213.71 257.546 213.712Z" fill="#673B72"/>
<path d="M250.09 169.17C250.109 166.41 249.77 163.993 248.8 161.692C248.487 160.95 248.061 160.263 247.479 159.694C246.557 158.789 245.391 158.769 244.429 159.639C243.582 160.405 243.11 161.401 242.733 162.451C242.128 164.135 241.869 165.877 241.765 167.659C241.612 170.275 241.867 172.832 242.72 175.315C243.063 176.309 243.516 177.25 244.271 178.014C245.318 179.077 246.594 179.05 247.609 177.954C248.489 177.004 248.946 175.835 249.331 174.634C249.487 174.144 249.617 173.644 249.708 173.138C249.961 171.734 250.15 170.322 250.09 169.17Z" fill="#673B72"/>
<path d="M264.061 168.68C264.019 171.328 264.354 173.731 265.305 176.021C265.578 176.679 265.921 177.306 266.404 177.841C267.608 179.173 269.09 179.089 270.172 177.657C271.278 176.197 271.766 174.501 272.078 172.744C272.661 169.44 272.533 166.16 271.573 162.937C271.278 161.948 270.855 161.009 270.228 160.17C269.084 158.641 267.452 158.614 266.278 160.121C265.578 161.02 265.13 162.041 264.811 163.124C264.259 164.999 264.01 166.912 264.061 168.68Z" fill="#673B72"/>
</g>
<path d="M388 119.753C385.215 118.145 381.785 118.145 379 119.753L330.543 147.729C327.759 149.337 326.043 152.308 326.043 155.523L326.043 211.477C326.043 214.692 327.759 217.663 330.543 219.271L379 247.247C381.785 248.855 385.215 248.855 388 247.247L436.457 219.271C439.241 217.663 440.957 214.692 440.957 211.477L440.957 155.524C440.957 152.308 439.241 149.337 436.457 147.729L388 119.753Z" stroke="#FFCF11" stroke-width="2"/>
<path d="M136 119.753C133.215 118.145 129.785 118.145 127 119.753L78.5433 147.729C75.7587 149.337 74.0433 152.308 74.0433 155.523L74.0433 211.477C74.0433 214.692 75.7587 217.663 78.5433 219.271L127 247.247C129.785 248.855 133.215 248.855 136 247.247L184.457 219.271C187.241 217.663 188.957 214.692 188.957 211.477L188.957 155.524C188.957 152.308 187.241 149.337 184.457 147.729L136 119.753Z" stroke="#FFCF11" stroke-width="2"/>
<path d="M198.525 9.78893C195.728 8.16183 192.272 8.16183 189.475 9.78893L141.451 37.7223C138.681 39.3338 136.976 42.297 136.976 45.502L136.976 101.498C136.976 104.703 138.681 107.666 141.451 109.278L189.475 137.211C192.272 138.838 195.728 138.838 198.525 137.211L246.549 109.278C249.319 107.666 251.024 104.703 251.024 101.498L251.024 45.502C251.024 42.297 249.319 39.3338 246.549 37.7223L198.525 9.78893Z" stroke="#FFCF11" stroke-width="2"/>
<path d="M198.525 230.789C195.728 229.162 192.272 229.162 189.475 230.789L141.451 258.722C138.681 260.334 136.976 263.297 136.976 266.502L136.976 322.498C136.976 325.703 138.681 328.666 141.451 330.278L189.475 358.211C192.272 359.838 195.728 359.838 198.525 358.211L246.549 330.278C249.319 328.666 251.024 325.703 251.024 322.498L251.024 266.502C251.024 263.297 249.319 260.334 246.549 258.722L198.525 230.789Z" stroke="#FFCF11" stroke-width="2"/>
<path d="M327 9.75278C324.215 8.14508 320.785 8.14508 318 9.75277L269.543 37.7293C266.759 39.337 265.043 42.3081 265.043 45.5235L265.043 101.477C265.043 104.692 266.759 107.663 269.543 109.271L318 137.247C320.785 138.855 324.215 138.855 327 137.247L375.457 109.271C378.241 107.663 379.957 104.692 379.957 101.477L379.957 45.5235C379.957 42.3081 378.241 39.337 375.457 37.7293L327 9.75278Z" stroke="#FFCF11" stroke-width="2"/>
<path d="M327 230.753C324.215 229.145 320.785 229.145 318 230.753L269.543 258.729C266.759 260.337 265.043 263.308 265.043 266.523L265.043 322.477C265.043 325.692 266.759 328.663 269.543 330.271L318 358.247C320.785 359.855 324.215 359.855 327 358.247L375.457 330.271C378.241 328.663 379.957 325.692 379.957 322.477L379.957 266.524C379.957 263.308 378.241 260.337 375.457 258.729L327 230.753Z" stroke="#FFCF11" stroke-width="2"/>
<rect width="516" height="366" fill="url(#paint0_radial)"/>
<defs>
<radialGradient id="paint0_radial" cx="0" cy="0" r="1" gradientUnits="userSpaceOnUse" gradientTransform="translate(258 183) rotate(90) scale(115 162.131)">
<stop stop-color="white" stop-opacity="0"/>
<stop offset="1" stop-color="white"/>
</radialGradient>
<clipPath id="clip0">
<rect width="72" height="57" transform="matrix(-1 0 0 1 293 159)" fill="white"/>
</clipPath>
</defs>
</svg>
