<svg width="28" height="28" viewBox="0 0 28 28" fill="none" xmlns="http://www.w3.org/2000/svg">
<path fill-rule="evenodd" clip-rule="evenodd" d="M27.25 13.143V13.5327C27.25 13.9712 27.25 14.423 27.2373 14.8777C27.2373 14.9553 27.2304 15.0361 27.2239 15.1132L27.2239 15.1132L27.2239 15.1134L27.2239 15.1135C27.221 15.1471 27.2182 15.1799 27.2161 15.2116C27.202 15.3789 27.1815 15.5455 27.1603 15.7058L27.1533 15.7474C27.1257 15.991 27.0841 16.248 27.0283 16.5473C26.8853 17.3042 26.6757 18.0469 26.4021 18.767C25.2234 21.8873 22.9275 24.4585 19.9599 25.9815C19.71 26.1065 19.4523 26.2322 19.16 26.3571C19.0213 26.418 18.8728 26.4534 18.7216 26.4616H18.687C18.4135 26.4639 18.1486 26.3662 17.9422 26.1867C17.7358 26.0072 17.6022 25.7585 17.5666 25.4873C17.537 25.2586 17.5778 25.0262 17.6835 24.8212C17.7892 24.6161 17.9547 24.4481 18.1582 24.3394C18.2076 24.3137 18.2515 24.2947 18.2947 24.276L18.3114 24.2688C18.3183 24.2652 18.3235 24.2634 18.3288 24.2616C18.3339 24.2599 18.3391 24.2581 18.346 24.2547C19.8521 23.5887 21.1929 22.5988 22.2728 21.3555C23.3526 20.1121 24.1449 18.6459 24.5933 17.0613C24.7182 16.6132 24.8158 16.1579 24.8856 15.698C24.9895 15.0402 25.0314 14.3741 25.0106 13.7085C25.0032 13.3033 24.9706 12.8989 24.9132 12.4977C24.6558 10.5904 23.9102 8.78184 22.7487 7.24725C21.5871 5.71265 20.049 4.50404 18.2832 3.73846C18.2799 3.73489 18.2747 3.73312 18.2695 3.73134C18.2643 3.72959 18.2591 3.72783 18.2556 3.72434C18.2457 3.71913 18.2346 3.71402 18.2227 3.70858C18.2024 3.69927 18.18 3.68899 18.1582 3.67563C17.9739 3.58469 17.8188 3.44384 17.7106 3.2691C17.6024 3.09436 17.5454 2.89276 17.5461 2.68723C17.5413 2.44246 17.617 2.2029 17.7614 2.00524C17.9359 1.76872 18.1953 1.60903 18.4851 1.55975C18.4881 1.55975 18.4931 1.55808 18.4981 1.55636L18.4982 1.55636C18.5035 1.55455 18.509 1.5527 18.5126 1.5527C18.5161 1.5527 18.5197 1.55093 18.5232 1.54917C18.5267 1.54741 18.5302 1.54564 18.5338 1.54564L18.5549 1.53857H18.7844L18.8056 1.54564C18.8091 1.54564 18.8126 1.5474 18.8162 1.54917L18.8162 1.54917C18.8197 1.55093 18.8232 1.5527 18.8268 1.5527C18.9366 1.5733 19.0439 1.60598 19.1466 1.65012C20.0927 2.05926 20.989 2.57515 21.8181 3.18778C22.6505 3.80028 23.4087 4.50776 24.0773 5.29588C24.7461 6.08575 25.3226 6.94935 25.7956 7.86994C26.3279 8.90653 26.723 10.008 26.9711 11.1465C27.0551 11.5233 27.1202 11.904 27.166 12.2874C27.184 12.4115 27.1959 12.5356 27.2077 12.6579C27.2145 12.7276 27.2211 12.7967 27.2288 12.8649C27.2298 12.923 27.2345 12.981 27.2429 13.0385C27.2485 13.0731 27.2509 13.108 27.25 13.143ZM21.5175 8.88953C22.5169 10.4036 23.0493 12.178 23.0484 13.9921C23.0476 15.8004 22.5168 17.5688 21.5215 19.0786C20.5262 20.5884 19.1101 21.7732 17.4484 22.4866C17.3085 22.5501 17.1567 22.5833 17.003 22.584C16.7444 22.5821 16.4943 22.4915 16.2945 22.3273C16.0947 22.1632 15.9573 21.9355 15.9051 21.6823C15.853 21.429 15.8893 21.1655 16.0081 20.9358C16.1268 20.7061 16.3207 20.5241 16.5575 20.4202C17.817 19.8784 18.8898 18.9788 19.6429 17.833C20.396 16.6872 20.7962 15.3456 20.7939 13.9745C20.7917 12.6034 20.387 11.2631 19.6302 10.1198C18.8734 8.9765 17.7976 8.08049 16.5363 7.54283C16.4008 7.48593 16.278 7.40245 16.1753 7.29731C16.0726 7.19218 15.992 7.06754 15.9383 6.93073C15.8837 6.79309 15.8569 6.64602 15.8593 6.49796C15.8617 6.34991 15.8934 6.20379 15.9524 6.06801C16.0369 5.86494 16.1799 5.69162 16.3632 5.57016C16.5465 5.4487 16.7619 5.38459 16.9818 5.38601C17.135 5.38435 17.2868 5.41515 17.4272 5.47639C19.0957 6.18859 20.5181 7.37549 21.5175 8.88953ZM18.0528 16.5662C18.5226 15.7743 18.7724 14.8713 18.7765 13.9505C18.7765 13.8484 18.763 13.6801 18.7498 13.5164L18.7498 13.5163L18.7489 13.505C18.713 13.1478 18.6385 12.7956 18.5265 12.4545C18.3076 11.7909 17.9499 11.1815 17.4772 10.6669C17.0045 10.1522 16.4277 9.74406 15.7852 9.46954C15.6378 9.40671 15.4794 9.37361 15.3192 9.37212C15.2306 9.37441 15.1423 9.38362 15.0552 9.39965C14.8177 9.45508 14.6051 9.58707 14.4501 9.77525C14.292 9.96006 14.2012 10.193 14.1924 10.4361C14.1819 10.5993 14.2081 10.7629 14.2692 10.9146C14.3303 11.0664 14.4247 11.2025 14.5454 11.3129C14.6534 11.4127 14.7782 11.4928 14.9139 11.5494C15.3888 11.7599 15.7925 12.1034 16.0763 12.5384C16.3602 12.9734 16.512 13.4813 16.5135 14.0006C16.515 14.52 16.3661 15.0288 16.0847 15.4654C15.8034 15.902 15.4017 16.2478 14.9281 16.461L14.9069 16.4681C14.8931 16.4751 14.8774 16.482 14.8617 16.4889C14.846 16.4958 14.8303 16.5027 14.8165 16.5097C14.6468 16.5973 14.5025 16.7272 14.3977 16.8869C14.293 17.0466 14.2313 17.2306 14.2186 17.4212C14.2048 17.6107 14.239 17.8006 14.3181 17.9734C14.3972 18.1462 14.5186 18.2962 14.6711 18.4096C14.8596 18.5576 15.0922 18.6383 15.3319 18.639C15.4849 18.6386 15.6363 18.6079 15.7774 18.5487C15.9094 18.4929 16.0414 18.43 16.16 18.3679C16.9408 17.9475 17.5945 17.3253 18.0528 16.5662ZM12.0767 11.4317V5.60161C12.0752 5.40469 12.0156 5.21259 11.9055 5.04934C11.7954 4.88609 11.6395 4.75894 11.4575 4.68381C11.3386 4.63392 11.2109 4.60802 11.0819 4.60757C10.9507 4.607 10.8208 4.63254 10.6995 4.68272C10.5783 4.7329 10.4683 4.80671 10.3759 4.89984L5.33866 9.96466H1.89835V9.971H1.4884C1.22556 9.97231 0.973957 10.0777 0.788698 10.2642C0.603438 10.4506 0.499625 10.7029 0.500001 10.9657V17.031C0.500001 17.2931 0.604135 17.5445 0.789495 17.7298C0.974854 17.9152 1.22626 18.0193 1.4884 18.0193H1.89835V18.0208H5.32101L10.3788 23.0856C10.4711 23.1787 10.5812 23.2525 10.7024 23.3027C10.8236 23.3529 10.9536 23.3784 11.0848 23.3779C11.216 23.3774 11.346 23.3515 11.4674 23.3016C11.6494 23.2273 11.805 23.1001 11.9141 22.9365C12.0232 22.773 12.0808 22.5804 12.0795 22.3838V16.5523L12.0767 11.4317Z" fill="white"/>
</svg>
