<svg width="25" height="24" viewBox="0 0 25 24" fill="none" xmlns="http://www.w3.org/2000/svg">
<path d="M15.0258 2.52632H9.97312C9.21522 2.52632 8.70996 2.02105 8.70996 1.26316C8.70996 0.505263 9.21522 0 9.97312 0H15.0258C15.7836 0 16.2889 0.505263 16.2889 1.26316C16.2889 2.02105 15.7836 2.52632 15.0258 2.52632Z" fill="#422A47"/>
<path d="M12.4995 15.1576C11.7416 15.1576 11.2363 14.6523 11.2363 13.8944V10.105C11.2363 9.34706 11.7416 8.8418 12.4995 8.8418C13.2574 8.8418 13.7626 9.34706 13.7626 10.105V13.8944C13.7626 14.6523 13.2574 15.1576 12.4995 15.1576Z" fill="#FFF0C2"/>
<path d="M3.14453 13.8943C3.14453 8.75064 7.35611 4.53906 12.4998 4.53906C17.6435 4.53906 21.8551 8.75064 21.8551 13.8943C21.8551 19.038 17.6435 23.2496 12.4998 23.2496C7.35611 23.2496 3.14453 19.038 3.14453 13.8943ZM12.4998 15.9075C13.0492 15.9075 13.5653 15.7211 13.9459 15.3404C14.3266 14.9598 14.513 14.4437 14.513 13.8943V10.1049C14.513 9.55547 14.3266 9.03937 13.9459 8.65873C13.5653 8.2781 13.0492 8.09169 12.4998 8.09169C11.9504 8.09169 11.4343 8.2781 11.0537 8.65873C10.673 9.03937 10.4866 9.55547 10.4866 10.1049V13.8943C10.4866 14.4437 10.673 14.9598 11.0537 15.3404C11.4343 15.7211 11.9504 15.9075 12.4998 15.9075Z" fill="#FECD34" stroke="#422A47" stroke-width="1.5"/>
<path d="M4.54216 7.70511C5.04742 7.07353 5.679 6.44195 6.31058 5.93669L5.17373 4.79985C4.66847 4.29458 3.91058 4.29458 3.40531 4.79985C2.90005 5.30511 2.90005 6.063 3.40531 6.56827L4.54216 7.70511ZM20.4579 7.70511L21.5948 6.56827C22.1001 6.063 22.1001 5.30511 21.5948 4.79985C21.0895 4.29458 20.3316 4.29458 19.8264 4.79985L18.6895 5.93669C19.3211 6.44195 19.9527 7.07353 20.4579 7.70511Z" fill="#422A47"/>
<path d="M12.5002 15.7895C13.5466 15.7895 14.3949 14.9412 14.3949 13.8947C14.3949 12.8483 13.5466 12 12.5002 12C11.4538 12 10.6055 12.8483 10.6055 13.8947C10.6055 14.9412 11.4538 15.7895 12.5002 15.7895Z" fill="#422A47"/>
</svg>
