<svg width="23" height="24" viewBox="0 0 23 24" fill="none" xmlns="http://www.w3.org/2000/svg">
<path d="M15.0161 0.977144C12.7595 -0.325717 9.97919 -0.325716 7.72257 0.977143L3.64663 3.33039C1.39001 4.63325 -0.000124381 7.04103 -0.00012453 9.64675L-0.000124799 14.3532C-0.000124948 16.959 1.39001 19.3667 3.64663 20.6696L7.72257 23.0229C9.97919 24.3257 12.7595 24.3257 15.0161 23.0229L19.092 20.6696C21.3486 19.3667 22.7388 16.959 22.7388 14.3532L22.7388 9.64675C22.7388 7.04103 21.3486 4.63325 19.092 3.33039L15.0161 0.977144Z" fill="#FECD34"/>
<path fill-rule="evenodd" clip-rule="evenodd" d="M11.8182 14.5455L10.7273 17.4546H11.8182L12.4319 15.8183H15.0228L15.6364 17.4546H16.7273L14.2728 10.9092H13.1818L12.2332 13.4388L11.0891 12.3082L11.1055 12.2918C12.0546 11.2336 12.7309 10.0172 13.1291 8.72996H14.7273V7.63633H10.9091V6.54541H9.81818V7.63633H6V8.72178H12.0927C11.7245 9.7745 11.1491 10.7727 10.3636 11.6454C9.85635 11.0809 9.43634 10.4672 9.10362 9.81814H8.01273C8.4109 10.7072 8.95637 11.5472 9.63818 12.3054L6.86454 15.0463L7.63636 15.8182L10.3636 13.0909L11.8182 14.5455ZM13.7273 12.3628L12.8409 14.7274H14.6137L13.7273 12.3628Z" fill="#422A47"/>
</svg>
